<?xml version="1.0" standalone="no"?>
<!DOCTYPE svg PUBLIC "-//W3C//DTD SVG 20010904//EN"
 "http://www.w3.org/TR/2001/REC-SVG-20010904/DTD/svg10.dtd">
<svg version="1.0" xmlns="http://www.w3.org/2000/svg"
 width="620.000000pt" height="515.000000pt" viewBox="0 0 620.000000 515.000000"
 preserveAspectRatio="xMidYMid meet">

<g transform="translate(0.000000,515.000000) scale(0.100000,-0.100000)"
fill="#000000" stroke="none">
<path d="M2765 4048 c-3 -13 -25 -153 -50 -313 -25 -159 -48 -302 -51 -317
l-6 -28 79 0 c106 0 173 21 212 65 43 50 40 78 -14 136 -24 26 -47 59 -51 74
-10 40 17 96 64 132 52 40 98 53 182 53 115 -1 190 -53 190 -133 0 -50 -25
-89 -88 -137 -80 -62 -87 -124 -19 -166 27 -16 61 -20 227 -25 107 -4 209 -11
225 -16 101 -33 182 -108 206 -190 21 -74 16 -224 -11 -302 -26 -78 -79 -160
-129 -202 -76 -63 -229 -118 -328 -119 -26 0 -34 -5 -38 -22 -7 -29 -95 -595
-95 -610 0 -7 54 -9 183 -5 150 4 200 10 285 31 418 105 722 377 861 769 56
160 74 272 74 462 0 198 -15 273 -85 415 -33 67 -60 103 -128 171 -99 100
-187 155 -324 204 -217 78 -389 95 -973 95 l-393 0 -5 -22z"/>
<path d="M2270 3791 c-113 -35 -150 -118 -75 -167 61 -40 73 -126 26 -191 -47
-65 -105 -87 -238 -91 l-112 -4 -5 -26 c-8 -40 -216 -1369 -216 -1381 0 -8
118 -11 388 -11 l387 0 108 693 c60 380 111 700 114 710 4 15 -5 17 -93 17
-79 0 -106 4 -141 21 -54 26 -86 70 -86 118 0 53 23 89 92 149 51 45 61 59 61
86 0 19 -8 40 -17 48 -36 32 -135 46 -193 29z"/>
<path d="M1566 1383 c-21 -137 -40 -261 -43 -276 l-6 -29 209 4 c201 3 211 4
254 28 109 61 131 200 40 253 l-29 18 44 43 c40 38 45 47 45 88 0 57 -25 90
-78 106 -24 7 -110 12 -219 12 l-179 0 -38 -247z m329 147 c8 -7 15 -27 15
-44 0 -47 -37 -78 -101 -84 l-51 -5 6 29 c3 16 8 51 12 78 l7 48 48 -4 c27 -3
55 -11 64 -18z m-27 -226 c15 -10 22 -25 22 -47 -1 -58 -40 -87 -117 -87 l-49
0 12 73 c6 39 12 73 13 75 4 10 101 -1 119 -14z"/>
<path d="M3226 1603 c-11 -52 -76 -481 -76 -502 0 -20 6 -21 80 -21 l79 0 5
33 c17 100 26 151 30 154 2 2 31 -39 65 -92 l62 -95 101 0 c84 0 99 2 95 15
-4 8 -38 62 -77 119 -38 58 -70 109 -70 113 1 4 43 44 95 88 51 44 94 83 94
88 1 4 -42 7 -95 7 l-96 0 -79 -71 c-90 -81 -89 -82 -64 61 24 138 28 130 -64
130 -79 0 -79 0 -85 -27z"/>
<path d="M3816 1618 c-3 -7 -21 -121 -40 -253 -20 -132 -39 -250 -41 -262 -5
-23 -4 -23 89 -23 82 0 95 2 100 18 3 9 21 123 40 252 20 129 38 245 41 258 5
22 4 22 -90 22 -68 0 -97 -4 -99 -12z"/>
<path d="M4100 1627 c0 -3 -18 -119 -40 -259 -22 -139 -40 -261 -40 -272 0
-17 9 -18 188 -14 218 5 261 18 333 95 130 141 113 348 -34 426 -38 19 -60 22
-224 25 -101 2 -183 2 -183 -1z m300 -154 c55 -50 49 -156 -14 -219 -26 -26
-43 -33 -89 -39 -32 -4 -61 -5 -64 -2 -3 4 4 67 16 140 11 74 21 137 21 141 0
3 22 6 50 6 40 0 56 -5 80 -27z"/>
<path d="M2260 1492 c-73 -30 -90 -44 -96 -82 -3 -19 -8 -47 -10 -62 l-5 -27
66 34 c73 38 143 47 165 20 22 -26 3 -44 -72 -65 -103 -30 -154 -55 -175 -86
-24 -37 -22 -89 5 -116 30 -30 124 -37 190 -13 46 17 51 17 73 1 14 -9 43 -16
72 -16 l48 0 23 52 23 53 -21 10 c-23 12 -23 15 -6 131 14 93 6 122 -43 158
-40 29 -173 34 -237 8z m109 -274 c-4 -24 -8 -46 -9 -49 0 -10 -49 -29 -73
-29 -45 0 -62 43 -29 73 18 16 85 45 108 46 8 1 9 -12 3 -41z"/>
<path d="M2675 1498 c-2 -7 -15 -94 -30 -193 -15 -99 -29 -190 -32 -202 -5
-22 -3 -23 80 -23 l84 0 17 108 c9 59 16 114 16 124 0 20 55 68 80 68 39 0 43
-23 25 -142 -9 -62 -19 -123 -22 -135 -5 -22 -3 -23 79 -23 l85 0 21 138 c31
190 29 226 -7 263 -26 25 -37 29 -88 29 -43 0 -69 -7 -100 -25 l-43 -24 0 25
c0 23 -2 24 -80 24 -56 0 -82 -4 -85 -12z"/>
</g>
</svg>
